<svg width="40" height="40" viewBox="0 0 40 40" fill="none" xmlns="http://www.w3.org/2000/svg">
<path d="M27.0117 4.94635L28.0859 30.8792L27.3047 30.8505C24.7265 30.7647 22.207 31.7654 19.9999 33.7669C17.7929 31.7654 15.2734 30.8505 12.6952 30.8505C9.45302 30.8505 6.85537 31.9656 3.90622 33.7383L6.13278 6.83333C8.16402 5.60385 10.5078 4.94635 12.6953 4.94635C15.625 4.94635 17.9492 6.31875 20 9.37802C21.9727 6.43313 24.1992 5.03208 27.0117 4.94635ZM40 40C38.1837 40 36.6211 39.4568 34.9805 38.3703C32.5391 36.7406 30 35.7684 27.3047 35.7684C24.5313 35.7684 21.9727 37.1123 20 40C18.0273 37.1122 15.4687 35.7684 12.6953 35.7684C10 35.7684 7.46092 36.7406 5.01953 38.3703C3.43751 39.3996 1.83591 40 0.0976981 40H0L3.02736 3.63115C5.82033 1.31521 9.21877 0 12.4414 0C15.0781 0 17.793 0.800521 20 3.03073C22.207 0.800521 24.9219 0 27.5586 0C30.7812 0 34.1797 1.31521 36.9726 3.63115L40 40ZM36.9141 35.3395L34.4922 6.14719C32.3047 4.68896 29.707 3.91698 27.3047 3.91698C24.5703 3.91698 22.0117 5.175 20 7.94844C17.9883 5.175 15.4298 3.91698 12.6953 3.91698C10.293 3.91698 7.69531 4.68896 5.50781 6.14719L3.08592 35.3395C6.4453 33.3096 8.98438 31.8514 12.6953 31.8514C15.371 31.8514 17.7344 32.852 20 34.9393C22.2656 32.852 24.6289 31.8514 27.3047 31.8514C31.0156 31.8514 33.5547 33.3096 36.9141 35.3395Z" fill="#035477"/>
</svg>
