<svg width="15" height="15" viewBox="0 0 15 15" fill="none" xmlns="http://www.w3.org/2000/svg">
<path d="M15 7.03125C15 6.33896 14.6628 5.74102 14.1667 5.41641V0.937793C14.1667 0.681445 13.9849 0 13.3333 0C13.1479 0 12.9638 0.0697266 12.813 0.205664L10.5987 2.19873C9.48646 3.19893 8.0901 3.75 6.66667 3.75H1.66667C0.746094 3.75 0 4.58936 0 5.625V8.4375C0 9.47314 0.746094 10.3125 1.66667 10.3125H2.54427C2.50807 10.6195 2.4875 10.9318 2.4875 11.25C2.4875 12.4151 2.72865 13.5161 3.15313 14.5002C3.28828 14.8134 3.58333 15 3.89271 15H5.82708C6.50547 15 6.91276 14.1258 6.50156 13.5188C6.07448 12.8883 5.82057 12.102 5.82057 11.25C5.82057 10.9245 5.86276 10.6116 5.93542 10.3125H6.66667C8.0901 10.3125 9.48646 10.8636 10.5984 11.8638L12.8128 13.8568C12.9604 13.9898 13.1439 14.0623 13.3331 14.0625C13.982 14.0625 14.1664 13.3951 14.1664 13.125V8.64639C14.6628 8.32148 15 7.72354 15 7.03125ZM12.5 11.1744L11.6393 10.3998C10.2331 9.13418 8.46667 8.4375 6.66667 8.4375V5.625C8.46667 5.625 10.2331 4.92832 11.6393 3.6627L12.5 2.88809V11.1744Z" fill="#06D38A"/>
</svg>
