<svg width="40" height="40" viewBox="0 0 40 40" fill="none" xmlns="http://www.w3.org/2000/svg">
<path d="M2.85714 36.25C2.85714 37.2446 3.30867 38.1984 4.1124 38.9016C4.91613 39.6049 6.00622 40 7.14286 40H32.8571C33.9938 40 35.0839 39.6049 35.8876 38.9016C36.6913 38.1984 37.1429 37.2446 37.1429 36.25V10H2.85714V36.25ZM27.1429 16.25C27.1429 15.9185 27.2934 15.6005 27.5613 15.3661C27.8292 15.1317 28.1925 15 28.5714 15C28.9503 15 29.3137 15.1317 29.5816 15.3661C29.8495 15.6005 30 15.9185 30 16.25V33.75C30 34.0815 29.8495 34.3995 29.5816 34.6339C29.3137 34.8683 28.9503 35 28.5714 35C28.1925 35 27.8292 34.8683 27.5613 34.6339C27.2934 34.3995 27.1429 34.0815 27.1429 33.75V16.25ZM18.5714 16.25C18.5714 15.9185 18.7219 15.6005 18.9898 15.3661C19.2578 15.1317 19.6211 15 20 15C20.3789 15 20.7422 15.1317 21.0102 15.3661C21.2781 15.6005 21.4286 15.9185 21.4286 16.25V33.75C21.4286 34.0815 21.2781 34.3995 21.0102 34.6339C20.7422 34.8683 20.3789 35 20 35C19.6211 35 19.2578 34.8683 18.9898 34.6339C18.7219 34.3995 18.5714 34.0815 18.5714 33.75V16.25ZM10 16.25C10 15.9185 10.1505 15.6005 10.4184 15.3661C10.6863 15.1317 11.0497 15 11.4286 15C11.8075 15 12.1708 15.1317 12.4387 15.3661C12.7066 15.6005 12.8571 15.9185 12.8571 16.25V33.75C12.8571 34.0815 12.7066 34.3995 12.4387 34.6339C12.1708 34.8683 11.8075 35 11.4286 35C11.0497 35 10.6863 34.8683 10.4184 34.6339C10.1505 34.3995 10 34.0815 10 33.75V16.25ZM38.5714 2.50001H27.8571L27.0179 1.03908C26.8401 0.726743 26.5662 0.464016 26.2271 0.28045C25.8879 0.0968842 25.497 -0.00023656 25.0982 1.36974e-05H14.8929C14.495 -0.00132463 14.1047 0.095434 13.7668 0.279204C13.4289 0.462974 13.1569 0.726322 12.9821 1.03908L12.1429 2.50001H1.42857C1.04969 2.50001 0.686328 2.63171 0.418419 2.86613C0.15051 3.10055 0 3.41849 0 3.75001L0 6.25001C0 6.58153 0.15051 6.89947 0.418419 7.13389C0.686328 7.36831 1.04969 7.50001 1.42857 7.50001H38.5714C38.9503 7.50001 39.3137 7.36831 39.5816 7.13389C39.8495 6.89947 40 6.58153 40 6.25001V3.75001C40 3.41849 39.8495 3.10055 39.5816 2.86613C39.3137 2.63171 38.9503 2.50001 38.5714 2.50001Z" fill="#DB0808"/>
</svg>
