<svg width="12" height="12" viewBox="0 0 12 12" fill="none" xmlns="http://www.w3.org/2000/svg">
<path d="M0.75 11.1429C0.75 11.617 1.08516 12 1.5 12H10.5C10.9148 12 11.25 11.617 11.25 11.1429V3.42857H0.75V11.1429ZM4.5 5.46429C4.5 5.2875 4.62656 5.14286 4.78125 5.14286H7.21875C7.37344 5.14286 7.5 5.2875 7.5 5.46429V5.67857C7.5 5.85536 7.37344 6 7.21875 6H4.78125C4.62656 6 4.5 5.85536 4.5 5.67857V5.46429ZM11.25 0H0.75C0.335156 0 0 0.383036 0 0.857143V2.14286C0 2.37857 0.16875 2.57143 0.375 2.57143H11.625C11.8313 2.57143 12 2.37857 12 2.14286V0.857143C12 0.383036 11.6648 0 11.25 0Z" fill="#06D38A"/>
</svg>
