<svg width="40" height="40" viewBox="0 0 40 40" fill="none" xmlns="http://www.w3.org/2000/svg">
<path d="M27.9583 6.49346L34.2222 13.5417C34.4861 13.8386 34.4861 14.3231 34.2222 14.62L19.0556 31.6859L12.6111 32.4907C11.75 32.6001 11.0208 31.7796 11.1181 30.8107L11.8333 23.5593L27 6.49346C27.2639 6.19652 27.6944 6.19652 27.9583 6.49346ZM39.2083 4.70404L35.8194 0.890799C34.7639 -0.296933 33.0486 -0.296933 31.9861 0.890799L29.5278 3.65696C29.2639 3.9539 29.2639 4.43837 29.5278 4.7353L35.7917 11.7836C36.0556 12.0805 36.4861 12.0805 36.75 11.7836L39.2083 9.01739C40.2639 7.82184 40.2639 5.89178 39.2083 4.70404ZM26.6667 27.0443V34.999H4.44444V9.99414H20.4028C20.625 9.99414 20.8333 9.89256 20.9931 9.72065L23.7708 6.59504C24.2986 6.00117 23.9236 4.99316 23.1806 4.99316H3.33333C1.49306 4.99316 0 6.67318 0 8.7439V36.2493C0 38.32 1.49306 40 3.33333 40H27.7778C29.6181 40 31.1111 38.32 31.1111 36.2493V23.9187C31.1111 23.0826 30.2153 22.6685 29.6875 23.2545L26.9097 26.3802C26.7569 26.5599 26.6667 26.7943 26.6667 27.0443Z" fill="#07CB26"/>
</svg>
