<svg width="52" height="52" viewBox="0 0 52 52" fill="none" xmlns="http://www.w3.org/2000/svg">
<path d="M26 51C39.8071 51 51 39.8071 51 26C51 12.1929 39.8071 1 26 1C12.1929 1 1 12.1929 1 26C1 39.8071 12.1929 51 26 51Z" stroke="url(#paint0_linear)" stroke-width="2" stroke-linecap="round" stroke-linejoin="round"/>
<path d="M18.7246 18.5004C19.3124 16.8296 20.4725 15.4207 21.9995 14.5233C23.5265 13.6258 25.3218 13.2978 27.0676 13.5972C28.8133 13.8967 30.3967 14.8043 31.5373 16.1593C32.678 17.5143 33.3022 19.2293 33.2996 21.0004C33.2996 26.0004 25.7996 28.5004 25.7996 28.5004" stroke="url(#paint1_linear)" stroke-width="2" stroke-linecap="round" stroke-linejoin="round"/>
<path d="M26 38.5H26.025" stroke="url(#paint2_linear)" stroke-width="2" stroke-linecap="round" stroke-linejoin="round"/>
<defs>
<linearGradient id="paint0_linear" x1="26" y1="1" x2="26" y2="51" gradientUnits="userSpaceOnUse">
<stop stop-color="#E80A0A"/>
<stop offset="1" stop-color="#1B18A3"/>
</linearGradient>
<linearGradient id="paint1_linear" x1="26.0121" y1="13.4893" x2="26.0121" y2="28.5004" gradientUnits="userSpaceOnUse">
<stop stop-color="#E80A0A"/>
<stop offset="1" stop-color="#1B18A3"/>
</linearGradient>
<linearGradient id="paint2_linear" x1="26.0125" y1="38.5" x2="26.0125" y2="39.5" gradientUnits="userSpaceOnUse">
<stop stop-color="#E80A0A"/>
<stop offset="1" stop-color="#1B18A3"/>
</linearGradient>
</defs>
</svg>
