<svg width="22" height="22" viewBox="0 0 22 22" fill="none" xmlns="http://www.w3.org/2000/svg">
<path d="M8.94336 11.9336C9.37281 12.5077 9.92072 12.9827 10.5499 13.3265C11.1791 13.6703 11.8749 13.8747 12.59 13.9259C13.3052 13.9771 14.0229 13.8739 14.6947 13.6233C15.3665 13.3728 15.9765 12.9806 16.4834 12.4736L19.4834 9.47356C20.3942 8.53055 20.8981 7.26754 20.8867 5.95655C20.8753 4.64557 20.3495 3.39151 19.4225 2.46447C18.4954 1.53743 17.2413 1.01158 15.9304 1.00019C14.6194 0.988797 13.3564 1.49277 12.4134 2.40356L10.6934 4.11356" stroke="white" stroke-width="2" stroke-linecap="round" stroke-linejoin="round"/>
<path d="M12.9436 9.93382C12.5141 9.35969 11.9662 8.88464 11.337 8.54088C10.7078 8.19712 10.0121 7.9927 9.29691 7.94149C8.58177 7.89027 7.86397 7.99345 7.19221 8.24404C6.52045 8.49462 5.91044 8.88675 5.40356 9.39382L2.40356 12.3938C1.49277 13.3368 0.988797 14.5998 1.00019 15.9108C1.01158 17.2218 1.53743 18.4759 2.46447 19.4029C3.39151 20.33 4.64557 20.8558 5.95655 20.8672C7.26754 20.8786 8.53055 20.3746 9.47356 19.4638L11.1836 17.7538" stroke="white" stroke-width="2" stroke-linecap="round" stroke-linejoin="round"/>
</svg>
