<svg width="172" height="72" viewBox="0 0 172 72" fill="none" xmlns="http://www.w3.org/2000/svg">
<path d="M62.8813 30.1297H69.0014V47.5879H62.8813V30.1297Z" fill="#5F14BF"/>
<path d="M83.9626 29.8398C85.5516 29.8398 86.9904 30.2156 88.2788 30.9671C89.5887 31.6972 90.6195 32.7495 91.371 34.1238C92.1441 35.4766 92.5306 37.055 92.5306 38.8588C92.5306 40.6626 92.1441 42.2517 91.371 43.626C90.6195 44.9788 89.5887 46.0311 88.2788 46.7826C86.9904 47.5127 85.5516 47.8778 83.9626 47.8778C81.9225 47.8778 80.3013 47.2658 79.0987 46.0418V53.8368H72.9787V30.1297H78.8088V31.869C79.9469 30.5162 81.6649 29.8398 83.9626 29.8398ZM82.6741 43.014C83.7478 43.014 84.6282 42.6489 85.3154 41.9188C86.0026 41.1672 86.3462 40.1472 86.3462 38.8588C86.3462 37.5703 86.0026 36.5611 85.3154 35.831C84.6282 35.0794 83.7478 34.7036 82.6741 34.7036C81.6004 34.7036 80.72 35.0794 80.0328 35.831C79.3457 36.5611 79.0021 37.5703 79.0021 38.8588C79.0021 40.1472 79.3457 41.1672 80.0328 41.9188C80.72 42.6489 81.6004 43.014 82.6741 43.014Z" fill="#5F14BF"/>
<path d="M101.205 32.2234C101.828 31.4288 102.633 30.8383 103.621 30.4518C104.63 30.0438 105.779 29.8398 107.068 29.8398V35.3478C106.509 35.2834 106.048 35.2512 105.683 35.2512C104.373 35.2512 103.342 35.6055 102.59 36.3141C101.86 37.0228 101.495 38.1072 101.495 39.5674V47.5879H95.3752V30.1297H101.205V32.2234Z" fill="#5F14BF"/>
<path d="M118.197 47.8778C116.329 47.8778 114.643 47.4913 113.14 46.7182C111.637 45.9452 110.456 44.8715 109.597 43.4971C108.76 42.1228 108.341 40.566 108.341 38.8266C108.341 37.1087 108.76 35.5625 109.597 34.1882C110.456 32.8139 111.626 31.7509 113.108 30.9993C114.611 30.2263 116.308 29.8398 118.197 29.8398C120.087 29.8398 121.783 30.2263 123.287 30.9993C124.79 31.7509 125.96 32.8139 126.798 34.1882C127.635 35.5411 128.054 37.0872 128.054 38.8266C128.054 40.566 127.635 42.1228 126.798 43.4971C125.96 44.8715 124.79 45.9452 123.287 46.7182C121.783 47.4913 120.087 47.8778 118.197 47.8778ZM118.197 43.014C119.271 43.014 120.151 42.6489 120.839 41.9188C121.526 41.1672 121.869 40.1365 121.869 38.8266C121.869 37.5381 121.526 36.5289 120.839 35.7988C120.151 35.0686 119.271 34.7036 118.197 34.7036C117.124 34.7036 116.243 35.0686 115.556 35.7988C114.869 36.5289 114.525 37.5381 114.525 38.8266C114.525 40.1365 114.869 41.1672 115.556 41.9188C116.243 42.6489 117.124 43.014 118.197 43.014Z" fill="#5F14BF"/>
<path d="M137.557 30.7739H141.712V35.3478H137.718V47.5879H131.598V35.3478H129.053V30.7739H131.598V30.3229C131.598 28.197 132.231 26.5113 133.498 25.2658C134.786 24.0203 136.579 23.3976 138.877 23.3976C139.65 23.3976 140.402 23.4728 141.132 23.6231C141.862 23.7734 142.463 23.9989 142.936 24.2995L141.422 28.6157C140.821 28.2722 140.209 28.1004 139.586 28.1004C138.942 28.1004 138.437 28.2936 138.072 28.6802C137.728 29.0667 137.557 29.6358 137.557 30.3873V30.7739ZM146.543 30.1297H152.663V47.5879H146.543V30.1297ZM149.603 28.197C148.487 28.197 147.585 27.8856 146.898 27.2629C146.211 26.6402 145.867 25.8671 145.867 24.9437C145.867 24.0203 146.211 23.2473 146.898 22.6245C147.585 22.0018 148.487 21.6904 149.603 21.6904C150.72 21.6904 151.622 21.9911 152.309 22.5923C152.996 23.1721 153.34 23.9237 153.34 24.8471C153.34 25.8134 152.996 26.6187 152.309 27.2629C151.622 27.8856 150.72 28.197 149.603 28.197Z" fill="#5F14BF"/>
<path d="M168.667 46.8793C168.151 47.2014 167.518 47.4483 166.766 47.6201C166.036 47.7919 165.252 47.8778 164.415 47.8778C162.139 47.8778 160.388 47.3195 159.164 46.2028C157.94 45.0862 157.328 43.422 157.328 41.2102V35.3478H154.784V30.7739H157.328V26.2322H163.448V30.7739H167.443V35.3478H163.448V41.1457C163.448 41.7685 163.61 42.2624 163.932 42.6274C164.275 42.971 164.726 43.1428 165.284 43.1428C165.993 43.1428 166.616 42.9603 167.153 42.5952L168.667 46.8793Z" fill="#5F14BF"/>
<path d="M140.181 60.717C139.484 60.717 138.808 60.618 138.154 60.4201C137.509 60.2222 136.997 59.9598 136.618 59.6328L137.199 58.3292C137.569 58.6218 138.021 58.8627 138.554 59.052C139.096 59.2327 139.638 59.323 140.181 59.323C140.852 59.323 141.351 59.2155 141.678 59.0004C142.013 58.7852 142.181 58.5013 142.181 58.1485C142.181 57.8904 142.086 57.6796 141.897 57.5161C141.716 57.344 141.484 57.2106 141.2 57.116C140.916 57.0213 140.529 56.9138 140.039 56.7933C139.35 56.6298 138.791 56.4663 138.361 56.3028C137.939 56.1394 137.573 55.8855 137.264 55.5413C136.962 55.1886 136.812 54.7153 136.812 54.1216C136.812 53.6225 136.945 53.1708 137.212 52.7664C137.487 52.3534 137.896 52.0264 138.438 51.7855C138.989 51.5446 139.66 51.4241 140.452 51.4241C141.002 51.4241 141.544 51.4929 142.078 51.6306C142.611 51.7683 143.072 51.9662 143.459 52.2243L142.93 53.5279C142.534 53.2956 142.121 53.1192 141.691 52.9987C141.26 52.8782 140.843 52.818 140.439 52.818C139.776 52.818 139.281 52.9299 138.954 53.1536C138.636 53.3773 138.477 53.6742 138.477 54.0442C138.477 54.3023 138.567 54.5131 138.748 54.6766C138.937 54.8401 139.174 54.9691 139.458 55.0638C139.742 55.1584 140.129 55.266 140.619 55.3865C141.29 55.5413 141.841 55.7048 142.271 55.8769C142.702 56.0404 143.067 56.2942 143.368 56.6384C143.678 56.9826 143.833 57.4472 143.833 58.0324C143.833 58.5314 143.695 58.9831 143.42 59.3876C143.153 59.792 142.745 60.1146 142.194 60.3556C141.643 60.5965 140.972 60.717 140.181 60.717ZM145.342 53.6957H146.955V60.5879H145.342V53.6957ZM146.155 52.5599C145.863 52.5599 145.617 52.4695 145.419 52.2888C145.222 52.0995 145.123 51.8672 145.123 51.5919C145.123 51.3165 145.222 51.0885 145.419 50.9078C145.617 50.7185 145.863 50.6239 146.155 50.6239C146.448 50.6239 146.693 50.7142 146.891 50.8949C147.089 51.067 147.188 51.2864 147.188 51.5532C147.188 51.8371 147.089 52.078 146.891 52.2759C146.702 52.4652 146.456 52.5599 146.155 52.5599ZM153.216 60.2136C153.027 60.3685 152.794 60.4846 152.519 60.5621C152.252 60.6395 151.968 60.6782 151.667 60.6782C150.91 60.6782 150.325 60.4803 149.912 60.0845C149.499 59.6887 149.292 59.1122 149.292 58.355V55.038H148.156V53.7473H149.292V52.1727H150.906V53.7473H152.751V55.038H150.906V58.3163C150.906 58.6519 150.987 58.91 151.151 59.0907C151.314 59.2628 151.551 59.3488 151.861 59.3488C152.222 59.3488 152.523 59.2542 152.764 59.0649L153.216 60.2136ZM160.795 57.1805C160.795 57.2924 160.787 57.4515 160.77 57.6581H155.362C155.456 58.1657 155.702 58.5701 156.097 58.8713C156.502 59.1638 157.001 59.3101 157.595 59.3101C158.352 59.3101 158.976 59.0606 159.466 58.5615L160.331 59.5553C160.021 59.9253 159.63 60.205 159.156 60.3943C158.683 60.5836 158.15 60.6782 157.556 60.6782C156.799 60.6782 156.132 60.5277 155.555 60.2265C154.979 59.9253 154.531 59.508 154.213 58.9745C153.903 58.4325 153.748 57.8215 153.748 57.1418C153.748 56.4706 153.899 55.8683 154.2 55.3348C154.51 54.7928 154.936 54.3711 155.478 54.07C156.02 53.7688 156.631 53.6182 157.311 53.6182C157.982 53.6182 158.58 53.7688 159.105 54.07C159.638 54.3625 160.051 54.7798 160.344 55.3219C160.645 55.8554 160.795 56.4749 160.795 57.1805ZM157.311 54.9089C156.794 54.9089 156.356 55.0638 155.994 55.3736C155.641 55.6747 155.426 56.0791 155.349 56.5868H159.26C159.191 56.0877 158.98 55.6833 158.627 55.3736C158.274 55.0638 157.835 54.9089 157.311 54.9089ZM164.475 60.6782C163.915 60.6782 163.369 60.6051 162.836 60.4588C162.302 60.3125 161.876 60.1275 161.558 59.9038L162.177 58.6777C162.487 58.8842 162.857 59.052 163.287 59.1811C163.726 59.3015 164.156 59.3617 164.578 59.3617C165.542 59.3617 166.024 59.1079 166.024 58.6002C166.024 58.3593 165.899 58.1915 165.649 58.0969C165.408 58.0022 165.017 57.9119 164.475 57.8258C163.907 57.7398 163.442 57.6408 163.081 57.529C162.728 57.4171 162.418 57.2235 162.152 56.9482C161.893 56.6642 161.764 56.2727 161.764 55.7737C161.764 55.1197 162.035 54.5992 162.577 54.2119C163.128 53.8161 163.868 53.6182 164.797 53.6182C165.271 53.6182 165.744 53.6742 166.217 53.786C166.69 53.8893 167.078 54.0313 167.379 54.2119L166.759 55.4381C166.174 55.0939 165.516 54.9218 164.785 54.9218C164.311 54.9218 163.95 54.995 163.7 55.1412C163.459 55.2789 163.339 55.4639 163.339 55.6962C163.339 55.9544 163.468 56.1394 163.726 56.2512C163.993 56.3545 164.402 56.4534 164.952 56.5481C165.503 56.6341 165.955 56.7331 166.308 56.8449C166.66 56.9568 166.961 57.1461 167.211 57.4128C167.469 57.6796 167.598 58.0582 167.598 58.5486C167.598 59.194 167.319 59.7102 166.759 60.0974C166.2 60.4846 165.438 60.6782 164.475 60.6782Z" fill="#06D38A"/>
<path d="M76.1168 0.397461C60.1843 5.81232 46.3096 11.2562 34.4927 16.7255C47.5218 21.244 22.6976 37.7063 0.508301 70.729C4.47872 64.9149 31.7454 26.4229 76.1168 0.397461Z" fill="url(#paint0_linear)"/>
<path d="M0 71.4766C11.9403 55.9542 47.3873 18.1554 47.7575 42.6929C53.1215 26.804 62.5722 12.7079 76.1166 0.397461C31.7452 26.4229 4.47852 64.9149 0.508106 70.729C0.34116 70.9757 0.177834 71.2262 0 71.4766Z" fill="url(#paint1_linear)"/>
<path d="M65.6997 19.7178C67.6731 19.7178 69.2775 21.4152 69.2775 23.5002C69.2775 25.5912 67.6731 27.2826 65.6997 27.2826C63.7152 27.2826 62.1108 25.5942 62.1108 23.5002C62.1072 21.4152 63.7152 19.7178 65.6997 19.7178Z" fill="url(#paint2_linear)"/>
<defs>
<linearGradient id="paint0_linear" x1="63.9827" y1="-12.7626" x2="76.6296" y2="-0.115714" gradientUnits="userSpaceOnUse">
<stop stop-color="#2C8666"/>
<stop offset="1" stop-color="#06D38A"/>
</linearGradient>
<linearGradient id="paint1_linear" x1="71.4497" y1="-5.2954" x2="83.5976" y2="6.85284" gradientUnits="userSpaceOnUse">
<stop stop-color="#06D38A"/>
<stop offset="1" stop-color="#06D38A"/>
</linearGradient>
<linearGradient id="paint2_linear" x1="66.5859" y1="17.975" x2="71.2896" y2="23.6965" gradientUnits="userSpaceOnUse">
<stop stop-color="#219D71"/>
<stop offset="1" stop-color="#06D38A"/>
</linearGradient>
</defs>
</svg>
