<svg width="52" height="54" viewBox="0 0 52 54" fill="none" xmlns="http://www.w3.org/2000/svg">
<path d="M51.4259 16.273C50.9156 15.6493 50.1785 15.2524 49.3281 15.2524H43.885C44.5654 17.2369 44.2252 19.4481 42.8644 21.1491L36.344 29.6539C35.1533 31.2415 33.2823 32.1487 31.2978 32.1487C29.3133 32.1487 27.499 31.2415 26.2516 29.6539L19.7312 21.1491C18.4272 19.4481 18.0303 17.2369 18.7106 15.2524H13.8912L12.6439 10.1495C12.3604 8.95882 11.2831 8.16504 10.0357 8.16504H2.66485C1.24738 8.16504 0 9.35572 0 10.8299C0 12.3041 1.19068 13.4947 2.66485 13.4947H7.93785L9.18523 18.5409C9.18523 18.5976 9.24192 18.6543 9.24192 18.711L14.5149 39.6896C14.7984 40.8803 15.8757 41.6741 17.1231 41.6741H44.2252C45.4725 41.6741 46.4931 40.8236 46.8333 39.6896L51.9362 18.5976C52.1063 17.7472 51.9362 16.8967 51.4259 16.273Z" fill="#06D38A"/>
<path d="M20.8085 53.9208C23.4076 53.9208 25.5146 51.8139 25.5146 49.2148C25.5146 46.6157 23.4076 44.5088 20.8085 44.5088C18.2095 44.5088 16.1025 46.6157 16.1025 49.2148C16.1025 51.8139 18.2095 53.9208 20.8085 53.9208Z" fill="#06D38A"/>
<path d="M39.2924 53.9208C41.8915 53.9208 43.9984 51.8139 43.9984 49.2148C43.9984 46.6157 41.8915 44.5088 39.2924 44.5088C36.6934 44.5088 34.5864 46.6157 34.5864 49.2148C34.5864 51.8139 36.6934 53.9208 39.2924 53.9208Z" fill="#06D38A"/>
<path d="M29.7668 26.932C30.5606 27.9526 32.0348 27.9526 32.8286 26.932L39.4057 18.4272C40.3695 17.1798 39.4624 15.3087 37.8748 15.3087H34.5296V1.13398C34.5296 0.51029 34.0193 0 33.3956 0H29.1432C28.5195 0 28.0092 0.51029 28.0092 1.13398V15.3087H24.6639C23.0764 15.3087 22.1692 17.1798 23.1331 18.4272L29.7668 26.932Z" fill="#06D38A"/>
</svg>
