<svg width="14" height="14" viewBox="0 0 14 14" fill="none" xmlns="http://www.w3.org/2000/svg">
<path d="M13.5625 11.6667H1.75V0.583333C1.75 0.261042 1.55422 0 1.3125 0H0.4375C0.195781 0 0 0.261042 0 0.583333V12.8333C0 13.4776 0.391836 14 0.875 14H13.5625C13.8042 14 14 13.739 14 13.4167V12.25C14 11.9277 13.8042 11.6667 13.5625 11.6667ZM12.6875 1.16667H9.4593C8.87469 1.16667 8.58184 2.10911 8.99527 2.66036L9.88121 3.84161L7.875 6.51693L5.86879 3.84198C5.52699 3.38625 4.97301 3.38625 4.63148 3.84198L2.75324 6.3463C2.58234 6.57417 2.58234 6.94349 2.75324 7.17135L3.37176 7.99604C3.54266 8.22391 3.81965 8.22391 3.99055 7.99604L5.25 6.31641L7.25621 8.99135C7.59801 9.44708 8.15199 9.44708 8.49352 8.99135L11.1185 5.49135L12.0045 6.6726C12.4179 7.22385 13.1247 6.83339 13.1247 6.05391V1.75C13.125 1.42771 12.9292 1.16667 12.6875 1.16667Z" fill="#06D38A"/>
</svg>
