<svg width="35" height="35" viewBox="0 0 35 35" fill="none" xmlns="http://www.w3.org/2000/svg">
<path d="M22.327 12.6732C26.4113 16.7617 26.3552 23.3166 22.3516 27.3424C22.3441 27.3506 22.3352 27.3595 22.327 27.3677L17.7333 31.9615C13.6816 36.0131 7.08979 36.0126 3.03875 31.9615C-1.01292 27.9105 -1.01292 21.3179 3.03875 17.267L5.57529 14.7304C6.24795 14.0578 7.40636 14.5048 7.44109 15.4554C7.48539 16.6669 7.70263 17.884 8.10349 19.0594C8.23925 19.4574 8.14225 19.8976 7.84489 20.195L6.95027 21.0896C5.03443 23.0054 4.97434 26.125 6.87132 28.0595C8.78702 30.0132 11.9358 30.0248 13.8662 28.0944L18.4599 23.5013C20.3871 21.5742 20.379 18.4594 18.4599 16.5403C18.2069 16.2878 17.9521 16.0916 17.753 15.9545C17.6122 15.8578 17.4959 15.7296 17.4135 15.5799C17.331 15.4303 17.2847 15.2635 17.2781 15.0928C17.2511 14.3704 17.507 13.6261 18.0778 13.0553L19.517 11.616C19.8945 11.2386 20.4865 11.1922 20.9242 11.4977C21.4253 11.8476 21.8948 12.241 22.327 12.6732ZM31.9613 3.03853C27.9102 -1.01257 21.3184 -1.01312 17.2667 3.03853L12.673 7.63228C12.6648 7.64048 12.6559 7.64937 12.6484 7.65757C8.64483 11.6834 8.58871 18.2383 12.673 22.3268C13.1052 22.759 13.5746 23.1523 14.0758 23.5023C14.5134 23.8077 15.1055 23.7613 15.4829 23.384L16.9221 21.9447C17.4929 21.3739 17.7489 20.6295 17.7218 19.9071C17.7153 19.7364 17.6689 19.5696 17.5865 19.42C17.504 19.2704 17.3877 19.1421 17.2469 19.0454C17.0478 18.9083 16.793 18.7121 16.54 18.4596C14.6209 16.5406 14.6129 13.4257 16.54 11.4986L21.1337 6.90555C23.0641 4.97515 26.2129 4.98677 28.1286 6.94041C30.0256 8.87498 29.9656 11.9945 28.0497 13.9103L27.1551 14.8049C26.8577 15.1023 26.7607 15.5425 26.8964 15.9405C27.2973 17.1159 27.5146 18.333 27.5588 19.5445C27.5936 20.4951 28.752 20.9422 29.4247 20.2695L31.9612 17.733C36.0129 13.6821 36.0129 7.0895 31.9613 3.03853Z" fill="#FBF107"/>
</svg>
