<svg width="100" height="110" viewBox="0 0 100 110" fill="none" xmlns="http://www.w3.org/2000/svg">
<path d="M91.6667 27.5H66.6667V6.875C66.6667 3.07871 62.9349 0 58.3333 0H41.6667C37.0651 0 33.3333 3.07871 33.3333 6.875V27.5H8.33333C3.73177 27.5 0 30.5787 0 34.375V48.125C0 51.9213 3.73177 55 8.33333 55H33.3333V103.125C33.3333 106.921 37.0651 110 41.6667 110H58.3333C62.9349 110 66.6667 106.921 66.6667 103.125V55H91.6667C96.2682 55 100 51.9213 100 48.125V34.375C100 30.5787 96.2682 27.5 91.6667 27.5Z" fill="white"/>
</svg>
